<svg width="100%" viewBox="0 0 900 260" role="img" xmlns="http://www.w3.org/2000/svg">
  <title>VERIDIAN AI — One Portal. One Truth.</title>
  <desc>VERIDIAN AI full logo lockup for light backgrounds</desc>
  <defs>
    <linearGradient id="vLeftL" x1="0" y1="0" x2="0.6" y2="1">
      <stop offset="0" stop-color="#34D399"/>
      <stop offset="1" stop-color="#14B8A6"/>
    </linearGradient>
    <linearGradient id="vRightL" x1="0" y1="1" x2="1" y2="0">
      <stop offset="0" stop-color="#14B8A6"/>
      <stop offset="1" stop-color="#2563EB"/>
    </linearGradient>
  </defs>

  <svg x="20" y="35" width="190" height="190" viewBox="0 0 1200 1200">
    <line x1="235" y1="385" x2="600" y2="970" stroke="url(#vLeftL)" stroke-width="190" stroke-linecap="round"/>
    <line x1="600" y1="970" x2="935" y2="455" stroke="url(#vRightL)" stroke-width="190" stroke-linecap="round"/>
    <g fill="url(#vRightL)">
      <rect x="924" y="349" width="92" height="92" rx="18" transform="rotate(-25 970 395)"/>
      <rect x="980" y="305" width="70" height="70" rx="14" transform="rotate(15 1015 340)"/>
      <rect x="1024" y="264" width="52" height="52" rx="11" transform="rotate(-10 1050 290)"/>
      <rect x="1056" y="226" width="38" height="38" rx="8" transform="rotate(20 1075 245)"/>
    </g>
  </svg>

  <text x="232" y="148" font-family="'Inter', 'Helvetica Neue', Arial, sans-serif" font-size="88" font-weight="800" letter-spacing="-1.5">
    <tspan fill="#1C2B3A">VERIDIAN </tspan><tspan fill="#2563EB">AI</tspan>
  </text>

  <line x1="234" y1="170" x2="860" y2="170" stroke="#14B8A6" stroke-width="1" opacity="0.35"/>

  <text x="234" y="200" font-family="'Inter', 'Helvetica Neue', Arial, sans-serif" font-size="12" font-weight="500" letter-spacing="2.2" fill="#5F5E5A">
    GOVERNANCE · COMPLIANCE · OPERATIONS · AI ENGINE
  </text>

  <text x="234" y="230" font-family="'Inter', 'Helvetica Neue', Arial, sans-serif" font-size="14" font-weight="600" letter-spacing="4" fill="#0F6E56">
    ONE PORTAL. ONE TRUTH.
  </text>
</svg>
